<mxfile host="app.diagrams.net" modified="2023-09-28T05:58:34.650Z" agent="Mozilla/5.0 (Windows NT 10.0; Win64; x64) AppleWebKit/537.36 (KHTML, like Gecko) Chrome/116.0.0.0 Safari/537.36 OPR/102.0.0.0" etag="jcWisfRgZc0pbIsK98ux" version="21.8.2" type="github">
  <diagram name="Page-1" id="pWcY-yP58tQdnxvKcO_S">
    <mxGraphModel dx="740" dy="457" grid="1" gridSize="10" guides="1" tooltips="1" connect="1" arrows="1" fold="1" page="1" pageScale="1" pageWidth="827" pageHeight="1169" math="0" shadow="0">
      <root>
        <mxCell id="0" />
        <mxCell id="1" parent="0" />
        <mxCell id="XkCLo2xvKGE-usK3MF6P-32" value="vSphere Cluster" style="text;html=1;strokeColor=none;fillColor=none;align=center;verticalAlign=middle;whiteSpace=wrap;rounded=0;" vertex="1" parent="1">
          <mxGeometry x="290" y="610" width="100" height="30" as="geometry" />
        </mxCell>
        <mxCell id="XkCLo2xvKGE-usK3MF6P-31" value="vSphere Cluster (DRS)" style="rounded=0;whiteSpace=wrap;html=1;" vertex="1" parent="1">
          <mxGeometry x="150" y="580" width="410" height="60" as="geometry" />
        </mxCell>
        <mxCell id="XkCLo2xvKGE-usK3MF6P-33" value="" style="whiteSpace=wrap;html=1;aspect=fixed;" vertex="1" parent="1">
          <mxGeometry x="170" y="650" width="80" height="80" as="geometry" />
        </mxCell>
        <mxCell id="XkCLo2xvKGE-usK3MF6P-34" value="ESXi" style="text;html=1;strokeColor=none;fillColor=none;align=center;verticalAlign=middle;whiteSpace=wrap;rounded=0;" vertex="1" parent="1">
          <mxGeometry x="190" y="700" width="40" height="30" as="geometry" />
        </mxCell>
        <mxCell id="XkCLo2xvKGE-usK3MF6P-35" value="K8 Control Plane" style="text;html=1;strokeColor=none;fillColor=none;align=center;verticalAlign=middle;whiteSpace=wrap;rounded=0;" vertex="1" parent="1">
          <mxGeometry x="170" y="650" width="80" height="30" as="geometry" />
        </mxCell>
        <mxCell id="XkCLo2xvKGE-usK3MF6P-36" value="" style="whiteSpace=wrap;html=1;aspect=fixed;" vertex="1" parent="1">
          <mxGeometry x="320" y="650" width="80" height="80" as="geometry" />
        </mxCell>
        <mxCell id="XkCLo2xvKGE-usK3MF6P-37" value="ESXi" style="text;html=1;strokeColor=none;fillColor=none;align=center;verticalAlign=middle;whiteSpace=wrap;rounded=0;" vertex="1" parent="1">
          <mxGeometry x="340" y="700" width="40" height="30" as="geometry" />
        </mxCell>
        <mxCell id="XkCLo2xvKGE-usK3MF6P-38" value="K8 Control Plane" style="text;html=1;strokeColor=none;fillColor=none;align=center;verticalAlign=middle;whiteSpace=wrap;rounded=0;" vertex="1" parent="1">
          <mxGeometry x="320" y="650" width="80" height="30" as="geometry" />
        </mxCell>
        <mxCell id="XkCLo2xvKGE-usK3MF6P-39" value="" style="whiteSpace=wrap;html=1;aspect=fixed;" vertex="1" parent="1">
          <mxGeometry x="460" y="650" width="80" height="80" as="geometry" />
        </mxCell>
        <mxCell id="XkCLo2xvKGE-usK3MF6P-40" value="ESXi" style="text;html=1;strokeColor=none;fillColor=none;align=center;verticalAlign=middle;whiteSpace=wrap;rounded=0;" vertex="1" parent="1">
          <mxGeometry x="480" y="700" width="40" height="30" as="geometry" />
        </mxCell>
        <mxCell id="XkCLo2xvKGE-usK3MF6P-41" value="K8 Control Plane" style="text;html=1;strokeColor=none;fillColor=none;align=center;verticalAlign=middle;whiteSpace=wrap;rounded=0;" vertex="1" parent="1">
          <mxGeometry x="460" y="650" width="80" height="30" as="geometry" />
        </mxCell>
        <mxCell id="XkCLo2xvKGE-usK3MF6P-50" value="" style="rounded=1;whiteSpace=wrap;html=1;fillColor=#dae8fc;strokeColor=#6c8ebf;" vertex="1" parent="1">
          <mxGeometry x="40" y="280" width="610" height="300" as="geometry" />
        </mxCell>
        <mxCell id="XkCLo2xvKGE-usK3MF6P-88" value="" style="shape=image;verticalLabelPosition=bottom;labelBackgroundColor=default;verticalAlign=top;aspect=fixed;imageAspect=0;image=data:image/png,iVBORw0KGgoAAAANSUhEUgAAAcAAAAEoCAIAAABAULbLAAAgAElEQVR4nOzdd1xTV/sA8Cc7gYQEwkb2RkCBgAouEMWNW+uqtf21VVs73eLbOqq1tnW0autqHW1drdC6BRTEBbKULRvCShgJ2eP+/gggIiLEsPR8P+/n85J777n3uaE+nHvOuefgMAwDBEEQpOvwvR0AgiBIf4USKIIgiJZQAkUQBNESSqAIgiBaQgkUQRBESyiBIgiCaAklUARBEC2hBIogCKIllEARBEG0hBIogiCIllACRRAE0RJKoAiCIFpCCbSThDmXzlzJFOrgTCpuzLkziaU6OBOCIL2rmxNo/tEFHM6Cw4Xde5VuE7OBw+FsjAGA6su7v965+VSi/NVPmnLy2x07d1/NefUzdZ+YDRwOZ8HR/N6OA0H6thcl0JiNnPbMP9pzuVCVsHMqJ2xHQpcK8U8v43A4nNAtCSqdBmM658D9pDvbQshalG3zV4Sz+mpS0qn3XHUSFz9297JZwRwOhzMkOOydLWce8du/KIIg3YD4gu3G3lPDKQAA3MSoRC7LNWSkGwMA2HYGPRebkMcFfjVPCMDobBHu5euJAAD1kZEXPw2a2uly/dSdnfNXneEzXIOmuhnXZ8ckRO58J5F7LOpTr94ODEHeDC+qgXrP2RQRsSkiYtNsbwAwHbNM83FFCFuzn5949POpgRwOZ0jwgg0nE+tbCspzzm1cEMzhcAKnrtidUNfqlPLCK98tmx0WyOFwOMELtlzlAgAII1cP4XA+PNNccQLu8aUcTvCWOACCpaUlWNrZMwBAlRO5YUHwEM1pd17JfcGT9KMLkakAHq6uADHxMa0aLGM2cjicDVdyjn8ydSSHwwmc+vnRlpg1z+lXMk9+Mj2Qw+EETv/kaNLzbZ2aM8TA09ufHTxEc/tncuRNG09uWBoWzHnmJDc2cubuzwHIOTi76aH42bqhvOjKlsXBHA6HM3Lqsu+ucJsrzjEbOBzO6pNXtzR9mZ+fyXmuTh1z4wwfXJcfPrVnU0TED6dirx5YvuLTd73auyjICy/tXDY3rOlXtu3phQDkhZe2LA3T3Puy3bH8tpfJPbpgCIezeH+ODtovEOS1olUbaH3MxvnL9ieAW1h4eJBl4dXdyxZv0aQr4T+rFuy4kqNyDZo6wVsWs2rDaW5LKQI38UY2eeCE8KlBrpATueGdnXcAGOHjQwGSYqOrNQdxY+LSgTUhZCQAeHt7kb09vAEg/eDGLVcLLYPCw8MGwaMzZ+7x2o0rIepsITDC3zs4JxggNjKS++zuGxsXHObZh4aPH2zMjdu/bOXRVinpysZ39vPsJ4SHeRtzE/av+PBo7ktvX2Yf2nT7u88VAgDIcmLieQ6B4eFh/sb8hP0rVp/hAph5h4e6MgAYHiHhU4Ps2tSJc4++M3djZJFl0NTw8S6QeHrjrA9Otnrqjtm9Lds4ODzIBbhxO1f+kNgmEAqZAcBNS8qRa26E5b/0nRAGtHtRMjclOpviNmFqeJAr5Pyz8Z3vmtpGcg6/M3tTZDbbP3zqeDdV4skfjySIn73Zj/fnsMbv3LvcVZv2CwR5rWEvEb3Bz8/vrSMFrTbd3jraz2/+zzlNHwVXVo3285v1UxqGFRx5y88vYOWFuqY90evH+fn5zT/UXFrZfIryE+/4+fl9HY1hGHZr82g/vw//4mEYhlWd/tDPb8qetLZBrPfz81t5mqc5iUymxNohuLAqwM9v5s9pzeec9VPLeaI3+Pn5BXx4urzpc9qeWX5+fhuut5zc78O/mvel/DjLz89vfXTzrg3RLWdYH918+7N+TGm+LI/3NIaWwG5tHu3nN/9oAYZh2JMj81t/CU8/lp94189vzKrLTV8Xln1gvp+f36pIQfOlm79k5YNvp7T9LWAYhj05/eE4Pz8/P7+A0eOWrPzxbFq5DHvuKs/FprluwOZorPkX8dkFQdMxPF5dy3cy/0hO9pFFfn4B84/kYAiCPE+LGmh64n0hcMLnujR9ZoQtDLeEwvtJhVBYkAsQPCGc1bQnZNKYp1Uuec7JVU2PvbO3xfAAQAYAACNDJrAg8fplLgA/NjYRLENGere5pH/weDYk7AwLDHvnk91Xy4HQTljcfyJjVOA9dZo3AIwMn20Hhf9EPtOVFDR+gmXTj97jg+0BCosKn+6b2Lxv8IRgx2f2tXP7LhPCBzffPrupVQP4MTvfCwvkcDgjw5YezwYA6LgjS5iYmAqM0PDxTV8XuC6YEwQQk9pS07R303zJBH9vj/bO4DjnwL9RRzcvD+cYQ37CyR1Lp05Zdqb9rnN5zqlPZgdzOBxO8KwtMXwAlQwAhPcT0wHGTwxv+jUR2GxWSxFh9NaV+zPB//O9S13aPSeCvOl6bByoMHLDgt1x5QzO+PBJId4UWauH8KDxUy0hNSaGy4+OTQS78SGD2xZmhG79N+ro6sX+VtzEk5tmT9kc81wjJTcmLh2AIcs8smXzli2bI3PIZKiPjLyoi5GbnZK+/4PVZzLl9iPDw0OHW4JQtxcmt/c3AwCAbOk9cWnEz2evxt05uyqIwU88cLadcQvCqI0L9iaUs/zHTw0P8SbLnmvnbA83J5MPAIlnT6TrdkgDgrwutEig3v5DGJAUebq5lVB49WQkF+yHcOzB3sEFIPZyZFP/jPBK1OXmPJKYHgcQ+Ompn7dGbIqI2LFoeOszBo+3h/SYqNMJSWAfPLxt/RMA+FyhmfeclXuOXr26OhD4FxPaNgdquo9AmHMjMjIqMjIqMiFXDgAxN1ul2oQrl5tbRdOvxBYC2NvZP913qXlf6uXY/Gf2tXP7uZcjU5tvn88HAChKSigC9qydp36IiNgUsfXz8S8o3grD338wCG9EXmnuzso5dSYBIGSw/0uLNl36xs4t5wqbu3bI9j6uxgBCuez5IxNTYwCCPj12YOumiIhN3y0a0hzCEH9vgCuXIpu+JRWf/7Q/EFzfO3V2lT8Unfz2UJ8etYogveVFw5g6ErQiYnzc6qOLpiaF+ttLsi/H5cgt52z90BsAZs8O2r8tYcvUBTGhboySxJhScvMj/CBXDsCd3R9+nuPG4mUnJD7zL9JrwgSXo/sPHwVwXT7++fxZePTj2fvLLP1H+FtCYeJ9AI7roGeP0HQfzdkbuzqwZZswclXwltjISG74wqan88Sd8xYkhLoxShKvpHLBY/mi4KdnSPxh1oL7E9xohYk30rkE1+Vvh3R8+yc/mJrefPtuK88eXew1iA1nzm1ZWu9vD9zEO4lcgKahngy6AUDixZ1bCr2C1i5vdV7LhauXX160f+PUBZeboyIPWf1pZ0dfFUb+dSYy9czlQ97+QfbGwMu+kVAI7DmhIc9fdJCHP0Ql7F7+SY6bMe/J7affvuXCNR9eXnBwS9j8mAlujMKkK+my8D3/RAAAgOuYsa72jhGrY6fuPLx5f8ip5ehBHkGepdUjPCtk6x8HlgdB9tXIyASufdinB46vDiIAADCm7zm1YbwrISch6nKiavh32+Y2tyyy52zbM8eLURgXGRnLG7Th0/HPnNF+vCZvuowJdnz+evYLv9k6x4uSfSMy8mq2zGPOzs1z2K33CyMjo4RgGT4+sPVWRsiIEID0yHPpTRtCt556z7jwRuSVVJ7lyOUH9i51ffpcPH7rseXGhZcjr6bzLIOW/3ywo1a/tre/es08ewD/1ftWB1kL069GXs4kL1y79OlAedM5n64KsuQmRt55xK1+9lQuS4+d3hpux02IirySC/5zt57bO8cSOsl+4S9Xj66dM4hRmBAVGRmVwDX1X/jdH01/Qp69KHvWzj1zvRllCZEXY3hemz4NfXoW1/eOnd0cbl+REBl1JZvgv3Dt8iC91lexnLNquSsh5+hX+58fR4UgbzgchmG9HQMAAKTunvreSeOVUUcXdzqBdEHMRs7qK2E7k7a1U6+M2cBZfXX8zqStL6xzIgiCtEebR3jdEsYePcEn8/86ySUEvTu1O7IngiBIt+j9BFqYefnksUI5w3XOd1vDWS8/HkEQpI/oM4/wCIIg/Q2aDxRBEERLKIEiCIJoCSVQBEEQLaEEiiAIoiWUQBEEQbSEEiiCIIiWUAJFEATREkqgCIIgWur9N5EQBHkDqVSq9PT0O3fvZmRk1tbW1tfXM5kGLJahq4tLYOAwHx8fCoXS2zG+XGffRHovKge9sYQgfc1HAVY+5vTejqJrMAyLj48/euy38vLyFx3DZDJnz5o1c+YMIrFPV/I6G1wOX/zygxAE6VlCmbK3Q+gakUj0zTfbHyQmAgCTyRweFOQf4G9pYcFkMgVCYXV1dfLD5Pjbt6urqw8fORIXH//1V/8zNjbu7ahfqLM10BHHUro7FARBumpbiP1I234zBw+Px1u9Zm1paSmFQnnrrXkzZ8ygUqnPH6ZUKi9fvvL78eMNDQ1GRkY7tn9jb//yFR56BepEQhCkJ8hksq+/3lxaWmpsbPzD97sWzJ/fbvYEACKROGXK5AMH9js7O9fW1kZs2lRfX9/ukb0OJVAEQXrCgQMHs3NymEzmjz987+Ly8vVhTIyNd367w3rAgKqq6h07vu2BCLWAEiiCIN2uqKjo8pUrOBxu48YN5ubmnSxFp9M3b/6aQqE8TE6+f/9Bt0aoHZRAEQTpdidPnVKr1SNGjBg8aNDLj25lwIAB06dPA4Dfjx/vntBeCUqgCIJ0L5lMpqk/zn9rnhbFZ8+aRSQS8/LyKisrdR3aq0IJFEGQ7pWamiaVSs3NzR0d21l096UMDAw8PT0B4O69e7oO7VWhBNrt3hls7mDY1NvobETbMMLWiNbO8Nt3fSzM6WQdXhcH4MrWe/lxrSzwMvMw0df8PMHZaOWQAZqfqUT8+hG2uA7LfsixbH1fo+xYgdbMLl0dAOZ5mrZ8V8hro6y8DAAGenhofQZN2bLSMp3FpCMogXa7weYMQyoJAJyNaNtDHa48qa2VtDP42cecrk8iPL9da97m9LcHd7a1XgOPgyBrA83P011Nhg0wMKQSAcDTVN+QSux4wDDHkkEjPo3fnkW1YXb5VTxPE30WldTVUkgfx+fzAeBVxsOz2WwA4NfW6iwmHenTr0m9TpzZtG3BDptvFadXNQLARGf2Q66wSiQ3ohFH2rIuZPMAwNtMf66nablA9ufjarlKTSbg5ww0sWfRMmtE/2Tz1Bg2z9OUJ1Z4mer/m8s3p5MdDGk2TEp0Yd3dUgEADDanhzkayVXqs5k1ZQLZeEcjexY1xN4wprAu0Jo52pYllCv/fFzNEyuYFOICLzO2HulxdWNkDl/d/DJFUoVwGccKAAypRAyw2yUNAVYGV/NrB5nRE7lCAPC10FwC+ye7pqBO6masZ6pPHjrA4GZR0zA9Ih73lqdpbNHTUXvWBpSZHiY0Iv5mUf3dMgEAuJvoTXBi65PwqZWN/+byAcDHnD7ZhV0qkJEIHVdzkX5JqVQBwKu8lEkmkwFAKpXqLCYdQTXQnuDCpu0Ocz6XVaPJngAQbMcy0ScBAJNCDHM00mwcOsDg99RKGgn/xbABALB2uA0RjzuUzLUyoPyfrwUAzHAz8bdkpFWJzOnkdcNtc/nii7n8DSNsmVSiu7Hep0MGnM2suVVcvyPUgU4mJHKFFY3y5AphoDVzgZfpyUeVyRWN349zJBFwy/0t66SKQ8lcHwtGYHOVEwByeBJrAwoJjwuwMkjkCh+UC4YMMAAAH3P6g3KBu4nep0Otz2XVxBbVfRvqaKpPdjCkfTFsQFplI0+sAAAiHvfVaDsAKBPINCc0oBB2jnW8VyY4nVH9rq/FsAEGxnqkTSPtIrN5x9OqZnmYepnq2zKpa4fbnM6oeVIr8bd8Ggzy2jA2ZgNA7SvUHzV1WAMGQ2cx6QhKoD1hnqfZgaTy+Z6mxnodPZ8eSaksF8qOpFSMsGWRCfiRtsySBpm7sV5+rWSsoyEA4HBwIr0qprAOANKrGu+VCVIqG4vrpSZ6pHGORtl8sS2TwqQQayVKjiWjVqKQKtX1UmWYo2FmjdjRkEYm4NQYuBvr14gVQTZMXwvG93dLb5c0tASgxrDMGpEzWy/AyuBBuTCtSuRpok8m4Nl6pKJ6aYid4bnMmjy+JLmiMbawfoQNEwCSuMKr+bUFdRIAWDvcRo3BifSqlhP6WTAeVYnulQkK6qTH06rGORrVShQfXszF48HDVE+FYcZ6pBG2zKv5dbl88e2ShkSuoJt+BUgvMjExAYDCoiKtz1BUVAQANjY2OotJR1AC7Qm77pT8l8uPzOFFjLTD45qeUjX/RyI8/RUI5UoAUKgwHACdjFepMQs62ZJBYVGJ5zNrNMfUSZvaT0UKleYHpRrD43D6ZAKViLdkUCwZlPtlAq5Q3nJaOpmgTyZodt0oqKuXKo4kV/z5qNrbTP/EdPdQB8PWoSZxhV6m+h4mehk1IrlKXSKQjnFgpVU1as4jkqtars6gEACgXvq0Pfd+ucCNrWfPetoLpE8mNDbHKZKr9MkEU33yzxOdZ7ubEnC4OokCh8NRiXiJUtX8Dai0/5aRvsrXx4dAIOTk5NTweFoUVyqViUlJAODt7aXr0F4VSqA9QaxQA8Dx9CoyAbd4kBkAiBUqCwYZALxM9VsO87NgAMAgc3pBnaRWoqyTKh9wBaceVT2sENqyXtI3nVUjUqqxU4+q/nxcZceiqjFMqcaIOBwAZPHEQpny1KOqMxnVHiZ6UiX2RaB1uVC243bJnntlAc8+NSdxhROcjPJrJSo1BgAPyoXzBpomlgs15xlmbQAABDwuwIqRw2s7Qdf1/Lp9D8rWj7Al4Jv+SGTzxH4WdE3LZqC1QS5fPHSAQXqV6JvbxTcK6szoZBIel1EjCrA0wOOATMC3/jaQ1waTyfTy9MQw7NLFS1oUj4mJaWxsZLPZAwcO1Hlsrwh1InU7iVKlxDAAUKmxrXHFeyc43S8TXMjmbRhpO83NJJcvFitUACBWqAOsDMY6GNHJ+G3xxQCwLa54/XDbOqmSTSN9f7cUAERyFWAAAEo1JlWqNecXK9QqNfZfLt/TlP7LZBcSHv+ourGgTsKgEO0NqasCrfcncjeNsv1pojODTLhV3FAtkscXN2wNtq8SyfVIhO/ulLaOtlQgw+Nxd8qaHqXvlwveHmSexBUCwKU8vreZ/sHJLhQCPpErvFsmGOtgKFNhLWGoAYsvaRhtZzjN1VimVMtV2JNayZX82sNTXMUKdb1UuSWuiEklzvIw2RHqgAdcNk9sQCFcy68dYmVweIqbWKmqbFRoEjfympk6dWpqWtq58+cnTZrYpe54mUz22+/HAWBaeDiBoMthKjqBprPrNTgAIgGnUD3z/ZOe20Il4lty5UsR8TgcgKK9HEQi4NQYtE5PXTrz0/PgcfCCS7wIHgckPF6menqt5y9NJuBR7tRCP5rObt36DUlJSR4e7ru++45E6tRgNQzDtu/4NjY21nrAgF9+OdjJUj0JPcL3GgygTa6E9rZ0Kccp1diLUptChbVJUFpkTwBQvPgSL6LGoHX2bPfScpQ9X3cfrVjOYDAyM7O2btvWmQFJKpXqp5/3x8bGEonEL774vA9mT0AJFEGQnmFlZbVt6xYqlXrnzt1PPv0sLy+vg4O5XO669RuioqIIBMK6dWv7YOunBmoDRRCkh5iZmZubmRUVFxcUFKz46OMRI0aMCQnx8/NtWT9OqVSmpaffuhV3/fp1pVIJAAsXLhg5YkSvRt0RlEARBOkJtbV1n33+GZdbQafTBw0adOfOnbi4uLi4OAKBYGhoyGKxGhoa6urqNHkTAOh0emNj4/nzfw8bOlS7WUh6AEqgCIJ0OwzDdnz7LZdbYW5uvvPbHRYWFkXFxZcuXb59+3ZNTQ2Px+M1DxE1MDAYOnTohPFhdnZ2GzdGZGRmrlu/4fChXw0M+uJbaqgXHkH6sf7SC3/9+o2d331HoVAOHtg/YMCA1rv4fH5lVZVUIiGTycbGxhYWFi27pFLpRx9/XFxcMmH8+M8//6zHo3451ImEIEi3O3f+PAAsXryoTfYEADabPdDDw8/Pz8vLq3X2BAAqlfrZZ58BwPUbNxobG3ss2s5DCRRBkO5VVlZWUFBAIpEmTZzY1bIDPTycnZyUSuWdu3e7I7ZXpLM2UAoBr0d649Jxo0L1/MhNpF36ZAIZ/8bNVlcvVaL/PoqLiwHA2dlJX1+bV3UH+wzOe/KkuKhY13HpgM4SaLib8ft+FhKFNmOz+yl9EmFrfLFmbqTnTXU1/mxo26eV197228XX8tv/QjaOsPUxp3d1EH6/xqQSp/31qN35s98oYrEEAGhUmnbFNWlXLG4790JfoMte+Mhs3r4H5To8YR+3Odi+g714HFzK4+++1+cWIeg+a4fbtsw11a5t8cXxrWbPe+1FvdXnZg/qFVQqFQAkUol2xcUiMQDQ9LTMv90KDWPqRmqsa++M93cYvEE3i3QejUaFV5hPXpN5NVm4r3njWi0R5A2hVCrj4+M17Y+9i0ajwaskUIkEAPRoXVshsWegGiiCvG74fP6NGzei/v2XzWbv2b27t8MBGk0PAEQiLRsxNa2f6BEeQZBuhGFYSkrKxUuXEhISVCoVDoeLiIjAddgq3TMMDVkAIBAIlEqlFkvL1fJrAcDI0PClR/Y8lEARpN+rr6+/evXqxUuXKioqWjYGBwdbWlgIBL2/zBSZQiEQCCqVqr6+XovFjWvr6gDA0MioG0J7VSiBIkg/hmHYiRMn/vjzz5Y5OFrExMTExMT0SlRt+Pr6Ghka1vB4NTU1XU2gKpVKs5wnGyVQBEF0C4fDLVq0aOjQoRcvXrwRHS2TyVp2jQkJCQsL68XYWhgYGBw8+EsNj1daVubu7t6lshUVFUqlkkqlalF17QH9IIEGWjMpBBwAKNVYQZ20XCjr+HgrBoVCxBXUadnl10cMMqfn8cXi5hcT8DjwMWckVwjbDBQaaKKfVyuRq96I9xeMaERfC4axHimbJ06t7PKb0c5GNKFcVdkof/mh/Y2zs/Onn3769ttvX7t27b+LFysrKwEg/vbtJUuWmJub93Z0AAA2trapaWklxSVdLVhcUgIA1tbWfaEx93n9YBjTl4HWvhYMV2M9jiVj30Tnme4mHR8fYMUYY98X25u7ZLqb8TjHp88sPuaMJYPNnx9muSrQ2pDaD/4KvroBBpRfp7g6GNLUGHzgZ/lxgFVXzzDQVN+G2RfHEuqKoaHh3Llzj//++7c7dowcOVKlUv3y66+9HVQTF2dnAMjIzOxqwYyMDABwdXHRfUy60D/+7Z1Mr6oSyQHgekHd+hG257NqAMCFrWdBJ2fyRDUiBQDgceBrwcAwaPlLZUAhDDZnNMpVaVWN/W7FnYu5/KU+FheymyZJnOBs9G8uHwCYFOIAA0pJg7T1Eur6ZAK+eVF1M31ytUiuTyaoMIxJIeqTCPl1EjqZYM2kPOFLNAP7KQS8vSGVJ1bwxArNGSwZFAMKoaheqt1CST0gyJoZXVD360MuAPyXy/tpggseh1NjGJ1MGGRGb1So0isbMQBLBkWlxhwMqTyJQqJQlwlkAGCqTyYTcA+5QolSDQAkAs7PgkHE4xLLhZrFmuxZVBsmNYcv1tRP9Uh4XwuGXKVOqxTJ+lvtHofD+fr6+vr6VldXX7p0qai42M7WtreDalrSPScnRyQSdemN+OTkFADw9PLsrsheTT+ogbbGIBM0/8Lf97N838/C0oC8a6xjgBUDADaNspvozB5sTn/L0xQA9Ej4/ZNcHAypI22Z20I6eueyb3pYIWTTSJYMCmj+PZszbhXVj7Bh7p3gNMbB8KeJLiNsmC0HT3Zmz/JoqpgfmOxCIeJnuJv8MM7pQ47lhpG2G0farh9h+84gi+2hDgBgbUD5ZbJLmKPR16Pt5gw0BYC3B5mvG24z2YV9aIqriV5fXLoLANKqGkMdDN/yNLVjUcUK9dKobDWGmdPJP090cTCkjnc0+t9oOwAY72T0/TjHSc7sIVYG64bbaMou41jaMqnT3IwDrAzIBPzPE10CrAzcjfUOTHIh4nFzBpp+MnSAOZ28Odg+wIqBx+EOTHJxZev5mDP2THDq1Zt+JaampkuWLOkL2RMALCws7O3tFQrFrVtxnS9VWFiYn59PJBID/P27L7ZX0T9qoJtG2cpVGIWIN6eTv4kvZlKI452M5p7NUKix1IrGz4ZalwuKXNh6C85nYgBEPA4AmFQiGY9/UC7M5ok8TLSZA6Z3qTG49IQ/ztHwt9TK0XaGcSX1MpV65ZABH1/Oq2yUm9PJP0907vi9cq5QtiWu2N+SsSrQZt75DAyDywu98Th419fiWFrlraJ6Ih73xwyPS3l8f0vG+ayaW8X1Hib6fbOlCQCyeeK10QWTndm7xjliGPyeVvlfLn/uQNN/sms09fR9E5yd2TQASKls/P5uKQCMdTC0YJAFUpWHid7W+GJfCzoABFkbVDbK994vA4DiBimLSlzobTbnbIZUqU7kClYF2jyufsKiEpMrhGlVIjdjPQIe1+8eX/qm8WFhBw4e/OPPP4YPD+rM9PJqtfrXQ4cBICgokMFgdH+A2ugfCfTko6pasbJBpqwRK1RqzIWtxxXKNE+jhfVSSwOyGZ1cJpBp/jMvbpBaG1AqhPKjqRUfB1iZ0cn/5fIzqkX97h/B5bzaXeMcf0utnOBktOd+mR4JTybgNM+YlY1yAg5HJxOeL9WS/4rqpQBQL1NWiuSaDCBXYXgczsGQZs+iLfI2AwAlhpnqkw8kcZf7W346dEBcccOhZG4P3V4X2bKoXIH8x3tlP94r8zDR/zbU4VG1yMqA4mWmP8qWBQBKNaZHIgCA5rEdAC7l1Y5zMKoRK24VN7QkQTM6ubShqYPxWn6dBYNMJeC3j3HQbKkRK8QK9a47pUsGW9ixqDcKanP5fXESoP5o0qSJFyIjKyoqVq1e/f2uXXQ6vYODMQzb8e3OpKQkMpm8eNGiHguyq/pHAi2olWraQDVqRHJLOoWIxynVmC2TWiNSVJGiW9MAACAASURBVDXKrQ0oOAAMwIJOBgBzOlkoUy27mGuiR9o30flafm3Lv6v+okokrxLJR9gwKQT8k1oJDoCIx9NIeIlCTSPhKUS8pLm9UqnGyAQ8ABDwOGZzn5KyebGWNou21EmUR1Mr0iobASDImskVyvwtGR9dyjOkET/ws5w70PRQcgX0PUsGmT+plZx6VAUAWTWiKpGcQSZUi+R3Shs0NdBxjoZlApmfBaPldq/l1+4a5yiQqfbcfzonVlWj3LV5DYy3B5nfLRPI1ep10QVSpdqIRvS3NDCiEUkE/CdX8phU4q6xjh4m+ulVfXEu9H6HQqFs/vqrNWvXFRQUnj137p0lSzo4ODExUbMi/No1a2xsbHosyK7qHwm0jTqpMraobnOwfRJXGO7KPpZaWS6UZdaINo60za+TjnU0ii2skyrVHw+xsmVRcQBiubqfDl75L5f/xTDro6mVAIABXMiu2TjC9vKT2onO7P9y+S21qrxayTxP0+IGqa8546W9QGczqz8dMuBYaqWDITVwAPNuWUOYk5G3Gf1hhdBEn/ygXNjtd6WV39Iqd4c5eZrqlwpkHiZ6fLEio1okkCm/DXXUIxEMKIQAS4PYovrWReqkyspGuRGNpKmMa9wubXjLy+x9P0u5Sh1ozfzjcdX5zJrtYxxuFdeHORrdKKgTK9RLfcxtmBSxQk3C4wrrtJyEDXmenZ3dypUff/XV13Fx8R0nUE1T6Yzp00eMGN5T0WmjHyTQr28W1UnbvmWx70G5l6m+lQFlQ0yhpmq5Lb44wMqAhMd9euUJCY+rlyo/+C/X35IhVao/upyr7J/NWAklDQYU4o2CWs3HQ8kVQwcYOBvRLuby75Q2AMBvaZUCubKqSr4tvtjdRO9sZvXt0gaFGrtb1qCpeFaLFKczqjXFf35Qrsaw2yUN1SIFx5LBEys+uZqnxmBrXHGIvaGjIe1kelVyRR9NoMX10gV/Zw42ZxjRiAmlDZo+95IG2bKLub4WjDIBdjSlUqHCrjypbd1kufd+OYnQ1KpxIZsnUaoVKuyjS3kBVgwiHvfno2qFCjuWWulmrGfHov54r0zzwP7Bv7lDBhioMGzllbzWox2QVzfI2xuHw5WXlwsEgg5aQrOysgBg0CDvHgxNG/0ggaa94AHqUbXoUbWo5aMag3tlz7z22yBV3ihof3b0/kKhxqJyeK233CsTtL7Nm811rtTKRs3Y8rxaCQDk8ZvqTQ1SpSbVAsDV/KZEnMsXt27akyrVl/L43XUPuiNWqFvupUW9VNl6UQDus+9ZtG75KW1uw5Gr1Lef7X/L5omzeU+/EJFC9aKFBpBXRKfTLS0ty8vLc3NzORxOu8eIRKKy8nIAcOmrwz9b9LNhTAiC9Hdurq4AkJmV9aIDsrOzMQwzMzNjsfr6is0ogSJIr3E31tMMxW3ha0Gf7MJuvWW4DfM1eLOuNc2oeM0I+XalpqUBgM/gwT0Xk7ZQAkWQXiNWqKtFz3RvCuUqvkTReku9VPl8H0C/psmM2dnZIpGo3QNSU9MAwNfPt0fD0gpKoAjSa4obpDefHTmQx5fcLX2mKf9xtajP9uxpx8rKytTUVKVSpaWlP7+Xz+fn5ubicDhfH5+ej62rUAJFEKSnjR41CgBu3rr1/K6YmFi1Wu3i4sxkMp/f29egBIogSE8LDR0DAAkJCfX1z1TAMQy7du0aAIwNHds7kXURSqAIgvQ0e3t7Nzc3uVz+x59/td5+/fr1ouJiPT29MWNCeiu2LukH40ARBHn9LHl78dp16y9cuKBSKltW3Lxy5SoAzJw5o+M35fsOXSbQUXYsR6O+uPRoN3EwpLXpAWjD14KxfkSfmEysZ3ia6idxO+rueNfHYqbHS+bDfp20O9sLouHn5zd92rR/LlyI+vff1tvd3d3fmjevt6LqKp0l0FtF9QVv3lvD+bUvvOXkCmG/m4v3FaVUCh9VtT8wBQAOJ1cY0t60J54qoQy9CfpCy5Z96OjomJ2TjTW/fWthYTFl6hQSqY9OSvs8HIZ16iXxEcdeOOoVQZDesi3EfqRtX39d5zWGOpEQBEG0hBIogiCIllACRRAE0RJKoAiCIFpCCRRBEERLb9qwEgRBdEzY2DTlOV3/lVZ1VavVUplUj6ano7h6AkqgCIJoT41hU2ZOd3F2ViqVNTU1Dvb261atMTcz0+JU+QUF+3/95ced3+k8yO6DEiiCIK/ql30/a+qep8+d/d/WzQf3/qT5KJfLiUQiHv/CpkK1Wq1UKslk8vO7JBIJjfbMm41SqZRCobSu5EqlUiqV+vRsGIap1QRCz70AhhIogiA6M3vmrLN/ny8pLbUwN9+289v6hnqRSDR5wsTwyVMWv7d01/YdZqZmPB7vszWrjx8+8nfkhUtXrjAYDEMWa/2atS0nSX/86Md9e40MjYSNwjVffOlo77Do3XfcXF1FIlFlVVXE2vX2dnYPkhJ/OXyYxWIpVcqINeuMjY3fensRi8WSy+VHDvzSY/eLEiiCIDqDx+EsLCyqqqvuPbhvZmr69cYIhVL54ccrAjj+YaHjrkfHLHzrresx0eNCQ4tLSy5eufzLT/tJROL+X3/579IlTw8PzUl27Prum81b7GxsU9JSd+3+8cCefQAwImj4yKDh9x7cP3TsyFcbIr7fs2f/nr1sI6MbsTGHfzu29stVPB5v49p17q5uPXm/KIEiCKJL9fUNTANmRlZWeXn5F2vXAEB9fX3ek7ywsaGrN6xf+NZbN2Jjtm/empya0tDQsHbjBgCoq69zdnTSJNC6ujoAnJ2NLQD4DBpcUlKiUqkAIMCPAwCDvQft2v0jt4IrEAq+2fktAMjkMqFQCAAEItHd1a2D5oLugBIogiA6U1JaKhQKbG1saFTqjGnTRg4fAQCVlZXm5uYMOt3E2OTK9WtGRkamJiY0KtXL0/OLTz4DgIaGBjweJxKJAYBKpUokYjWG4XE4qUyGYaDJiRKJhEqlChuFFAqFSqUZGRp+tTECAGQyWV1dHQB03NjaTdA4UARBXtXN+LiYWzdPnz+3btPGpW8voVKpocEhf0deqK6uzi/I3/DVJplMBgATwsJ+PnhgwrgwAPDz8c3Kzkl/lF5fX/ftD7sys7M1p6LRaB7uHsdPnijncg8e+jV41ChNr9HR47+XlZcfPnZsXOhYM1NTQ0PDS1cuNzY2Hjv++7XoG711452djWnfg/LuDgVBkK6a5GzkYNibk/BiGHbo6BHNzzQ9PX8/PzcXV83HB0mJt+Lj8Xh8+OQpTo6OAKBQKH47eeLtBQs13e4VlZXnL/zTIGgY6j9kTHAwj8+/9+D+5AkTpTLZub//Li4pdnZymh4+jUQkLnr3nXmz56Slp7u7uYVPmYrH4UQi0dm/z5dzuU5OTjPDpxGJxN9OHF+yaHEP335nEyiCIEhvWfTuO3u//9GQ1ecm7kOP8AiC9HUBHH9yn5xlGdVAEQRBtIRqoAiCIFpCCRRBEERLKIEiCIJoCSVQBEEQLaEEiiAIoiWUQBEEQbSEEiiCIIiWUAJFEATREkqgCIIgWkIJFEEQREsogSIIgmgJJVAEQRAtoQSKIAiiJbSkB4IgvamxsbGuvl5fT8/Q0LD1ksX9AkqgCIL0NIFAcPPWrTt37j5+/Fiz2gcAEAgEe3v7wGHDRgePth4woHcj7KTOzgfqsukYmjkUQfqaA/NDQ91tejuKLpDJZH//88/p02dEIpFmCw6Ho9PpEolEqVRqtuDx+LFjQ99++20TY+Pei7RTOlsDLeYLujUOBEG0IJIrejuELqjh8f636X95T54AgKOjY2jomGFDh5qZmRGJRACora1NSUm5FRd/7969q1ev3b17LyJi4+BBg3o76o50tgZKWbGnu0NBEKSrzrw/OXyQY29H0Snl5eWff/FFbW0di8VavuzD0aNHv6jFMzc3d9++n7JzcohE4po1q0ePGtXDoXYe6oVHEKTbNTY2Rmz6X21tnb29/U/79gUHB3fQX+Ti4vLDD9+PHRuqVCq/+25Xdk5OT4baJSiBIgjS7X7ev7+0tNTU1HTH9u1mZqYvPZ5EIq368sugwEC5XL5161a5XN4DQWoBJVAEQbpXfn5+dHQMDoeLiNhoZGTYyVI4HG7NmtVmZqZVVdUXIiO7NUKtoQSKIEj3On36DIZhIcHBbq6uXSpIo9GWvL0EAM6cOatSqbonuleCEiiCIN1IoVDcf/AAAGbMmK5F8ZCQYCaT2dDQ8OjxY12HpgMogSII0o0yMjLEYrGJiYmzs7MWxfF4/LChQwEg8UGirkPTAZRAe5qhHuWbacNbPi4ZNnDF6MHPH8bWp64bH6DbSzNpFGsjhhalIiYNjVoe/td7kyZ7O2g2bgsPopIInSnuadnXx0Ij3aqiogIAnJyctH5N08nJCQAqKyt1GZaOoATa0/Qp5PkBbpqfV4b4LBs16HRSO6M06FTydB8n3V56+/ThfjZmXSrCoJJvfTFHqVKvOh+3Nyblq8nDFgS4AcBbAW4kwssTKI1EjFoRrmW4yGuBX1sLAGy2kdZnYLPZAMDn83UWk+6gd+F7zSdjfGf6OI/fe75OLNMnk94f6fXjjWQAGOdhWy+WVQnFOBzuveGeg61N/0l5Ep1dAgB2bIMPRw6ikQjH72U9LKmyYxtwbM18rE1TSqtJBEIxXzDD10muVO+OTq4WivE43DuBA/3tzNPKag7FP3IyZQXYmRvTaY/KeaV1wg9GeA+0ZN8t4B6/l4lhwLE1e3vYQLlSdeJ+ZmppTUuQ74/wSiqu2n7lAQAA1L134tpI56cvKYe624hkirsFFQAQMWnolov32PrUj0N8zAz04vPK/0zMXjjE3YBK/mSM757oZHcLo3eDPPE43OHbjzMr+AMt2U4mrOFOVjE5pZcfF/bsd4/0HAKBAABqtVrrM6jVKgBQvcIZug+qgfaOT8b4bpkaOOfQf3ViGQDokYnvBXlpdo10HjDY2gQAvCyNaSTSkduPd84cEeRoaaRPvfTx9JicklMPsn9dFOpuYWRjxDi4ILRSIK4Wiqd4O2yaPPTsw1wcDvbNCwaAbdOCfGxM98QkW7HoP8wZVdEgKuIL7hZwa4TiXxaEGtOpu6OTh9hbrJ8whEIk/PXepL8Ss/9OyTv7/hQK8WnVMtDBMiG/vOVjamnN3piUlo9BjlY+Nk1j+j4KHgwAu2aNapDI9kSnvBPoGepme7egQqpQXs8sHmDIOPf+lKi0gr9Tnvz53sQBhgxnU8ODC0Lza+prRZJu/7qR3mPMNoZXqz9q6rAsJlNnMekOSqC9wJShN97D9q/EnC1TAzs4LLuydl9sSkpp9b6Y1Nl+LpO9HPKq65VqjE4l38mvmOPnCgCZFbX7YlPi8soB4Je49PuFlb/GP3I0YQHA28MGXs0osmDSb+WWzeW4CqQyXqOkkCdQqNTTBjvF5ZVbsujR2SULAtyUarUKw6Z4O2IYuG46JlM+HS9CJhI0Kb6T6sWyEFebgZbsGQejrmcVF/DqFSp1ZgV/lq9zSmk1kYAnEwmppTXTBjsCwP3CioNx6fcL+2LbFqIr5hbmAJCX90Tr2Yhyc3MBwNbOVpdh6QhKoL2gQSKbfjDqszM3h9pbtLSH4vFNTexkQtMvhd9cNauXyPQpJJYeRY9M9LUx9bUxLa4V3C3gAkCNUNxyWoFUDgBypQqPwxHwODqF5GZu5GtjOsja5LtrSS1NlgY0slyl8rEx9bUxtTdm/hL/SKXGRn1/ploo3j5jeGrEIhM6reWc2ZW1HhZPW69MGXpfTRnW+l5wgAMAPA5HxOMBYNX5uJP3s2b6OGd/vWSip33LYYZ6FAaVrAn+EZeXXlYDADWNqO75+nN3czMwMKitrc3KytaiuEqlun//AQD4+vjqOjQdQAm0F8iUKqlCJZIr3vn96g+zRzubGorkCiN9qh6ZiMfhOHbmmsMGWhob6lEAIMTNOqmoKrW0mkoi/njj4a5rSRiGaR60X/Q3XaXGMrj8ewUVu64lnUnK8bI0litVCpWaiMdVC8VCifzftPxd15Kis0rs2QYWTP3NUwJ/jH44ateZQl7DQKun/ea/3c34v+FeTqYsACDgcV9PHWZC12vZ2yiT2xgxAMDH2lST9/fOC75bwJ1/5NK6f25P8LRXqjECHg8AKaU1eBzu++tJu64lMSgkTYcsmh/xTUAkEoMCAwHg3PlzWhS/evWaUChks9ne3l66Dk0HUCdSb0oqrtodnXxy6YSRu07/lZhzb+18XqOE31wv4zdKzrw/Wa3GBFL5l+fi5EpVfF753TVv8RolBBzu8O3HgwZ0NELooz9jfl0UWsQTOJqwvvrvLgAkFVfumjWqQSL/v5PXT//f5PyaekcT1srTsZUCEQbYrS/m1oulMqXqbj635SQZXP6X5+MufTS9UiC2ZOrfK6z44OSNlr1/pzy5+NE0jq1ZpUBc0SACgOjskn9XTMuurLU2Yrx/4oZcqSqrF0Z/Nit097mx7ra3V80TyxVCqXzHlcSwgXbd8p0ifc+MmTOu37hx+3bCo0ePvLy6kAcbGxuPnzgBALNnz9JMedfXoOns+hADKlkkV6jUT38jOBwYUCkNkqetkGQigU4h1YqknTynMZ1WL5Ypm3swqSSCVNHUxGnC0KsVSVouR6eQcDicUNr+rA2mDD2BVNZStnWETCqlvlWEJAKeSaPwWj2et1yUSiJQicTWByOvqL9MZ3fw4C/n//7byMjwp337TExMOlNErVZHbPrfgwcPHBwcfv5pX99MoOgRvg8RSOWtsycAYBg0PJtu5EpV57MnAPAaJcpW4z9aZ8Aaobj15RplihdlTwCoFoqfz56aCNskRIVKzXu2cbOloFShQtnzzbT47cXOTk61tXWr16wtLSt76fFSqXTrtm0PHjygUqmrvvyib2ZPQAkUQZAeoEejffPNNisrq7KyspUrP/nvv4sdTA6Smpr68cpP4uNvUyiUrVu2aN5E6pv6aF5HEOQ1IxQKMUwNAI2NjXv27j177lxISPDQIUMtLMwNDAxkMllVVVVqauqtuPj09HRNkYkTJw4a5N2rUb8ESqAIgnQ7Lrfiy1WramvrzMxMx4eNj4yK4nK5J0+eOnnyFADg8fjWryoRiUQHB4fc3NwLFy44OTmOGzu29wJ/CZRAEQTpXhiG7fzuu9raOkdHx293bGcymbNnz4qPvx1/Oz4rK7uurk6TPalUqqODw5ChQ0LHjDE2Nj5w4OA/Fy788MOPjg4Ojo59tKMMJVAEQbrX5ctXMjIy9Gi0r7/6islkAgCFQgkNHRMaOgYApFKpQCCg0Wh0Or31jE3Lly/j8Xnx8bf37N23d8/uXou+Q6gTCUGQ7vXfxYsAsGTJ2+2uhkSlUk1NTRkMxvPz3X204iMKhZKVlVVY2Eenm0EJFEGQblRVVZ2Xl0ckEkNDQ7ta1sjIcEhAAADcuXu3G0LTAZ09wpMIeCrpjWsQkMiVyhfMskUhEsjETk05/DoRyRTqF7yaQSUROjOF6GumUSZ/w99YLS8vB4ABAwYwGF2ezBsA3N3d4+LjNSfpg3SW8paNGvTNtOGtJ/J57VFJhLePXTmXnNfu3u3Th7833Euh6ouTGHYTPTJx5K4ziUXtz650aunEUHfbF/29eS3pk0k26w5Vt5rw5Q2kVCoAQOuR8CQSCQD67LLGuqwzHoxL+/JcnA5P2Mf98e7Ejg9Yf+H2T7GpPRNMX5Cwel7HByw8eunf9IKeCaYvKNvxf70dQu+j0WgAIJFoOfOWWCwCAD09fV3GpDuoDRRBkG5EpdEAQCrtwvvHrUmkMgCg0ai6jEl3UAJFkNdTDY93/MSJouLi3g2DSqXCKyRQqUQCADQq7aVH9gqUQBHktYJhWHJy8patWxctWlRQUGBn28sTuevr6QOARCLRblmkRlEjAND0+mgCfeP6zRHkddXY2Hj9+vULkZFcLhcASCTS/733Xm8HBSwWU/OmZn19vZFRl9fmrOXXAgDbiN0NoekASqAI0u/l5eVdvHjxRnS0TPZ0tsBRI0fyeDwej9eLgWnQ6foCgbC2tlaLBKpZUU6Lgj0DJVAE6ccwDDtx4sQff/6pVCrb7LoRHX0jOrpXompDT18fAKqqq7WYmK6mpgaal4bvg1ACRZB+DIfDLVq0aPLkydeuXfvv4sXKyqeDcEOCg5ctW9aLsbX46aefbsXFl5aUQker0LaDz+eLRCICgWBpadE9ob2qvpJATei0gVbGN3NKAQCHg+mDne8UcCsbRAAw0JKtxrCsitoXlTVn6lsbMl40frtvIuBxSwM9J3s7UIiE2JzSPTHJ7c73/jwGlWxmoPekur6DYzwtjce42+yJTm7ZsmVqoGatY6lSlVdV92t8Ol8k3RoetC82pUrQX4d5u5kbDbR8pmISmZo/ycueSHima/TSo0KJQknE40PcrO3YBvk1DbE5pWoMo5IIk7wcAECuVPEbpall1WJ520pcf2FoaDh37tw5c+akpKRcvHQpISFBpVLF3rw5fcYMN1fX3o4OHB0db8XFFxZ1+X32oqIiALC0tNQMp++D+lAv/B/vTsTjcAAweIDpkcXjlgwbqNm+adJQZ1PDDgr6WpsuHzWoJ0LUnaOLw4Y7Wa375/ayP6JdzAx/XdjZGQ/XjQ8Y6TSg42NMDfSG2pu33hLsap2Qzz2c8Pjk/Sw7Y4MTSycAQIibNZ1C1i7+vmD6YKc1Yf4hrjYt/yPgcaNcBoS42nwc7LNx4hDNRiqJYMHUv7Nm3lyOqz6FtHzUoIsfTaMQCQZUytHFYSGuNhO97NeO98/8agnH1qy37+mV4HA4X1/fiI0bT5448d677xqz2QcOHNB6NXYdcnNzA4BH6Y+6WvDRo8cA4O7mpvuYdKSv1EBrGiWltUI3c6PMCv44D9v9N1PHedjuuPIAh4Oh9hb/d+I6ADiasJxNWWllNZoFID0s2HViqY0Ro2VFdQaV7GjCTCurwTDwsGBbsegPS6pqRVI8DudiZqhSY1QS4VE5z93CyI7NTCur4dY39srN+tmYDXOwcP/qN82SRMv/iN4aHkQhEpRq9dtDBw53tirkNeyNSWmQyOZyXCsaGmf6OKswbNf1h0Q8bqSzlacl+0FRZaCjRaVAPMbNZvN/d61Y9PdGeBFw+FP3s+4UcNu96MPiqnuFFQCQUlJVuuN9fKuZb2b5Oo9xt1Gr4XRSdlxe+QgnKxKRMMbV2ohOPRz/+GFJFQBMG+w0ycu+skG0OzqZ35VFmbrV1YyiiKg7rbd8fvYWAKwYPdjFlPXJmZuajX+8O+bPxOwfbyQDwO7o5L8/nBrqbptYVCmUyVf82dRKONPX+deFY323nezZO+gWxsbGc+fOnTlzZkJCQklJiW1vj2Ty8PAgkUg1PF5xcYmtrU3nCyYmJQGAV59c0FijD9VAY3JKghwtAWCch+2BuHQzhp6hHsXdnJ3PaxBI5ctGDTqyeJyfrdm/K6ZN8XYAgHMfTD7+zvg1Yf6aXGBAJUetCHc3Z2MYfD1l2I7pwwPsza9+MnOgJZtCJFxdOePQorErRg9eMmzgz2+NCbAz/2/FtBFOVr1yp0MczO8XVbYs6CZTqladj5MpVV+O5Yxxt9l++UGdWHph+VQcDiZ7O6yfMOTY3Yx6seynecG1ImludX1yaXV5vXCev9vioR6JRZVMGuX0+5PPJ+f9djfj10WhvjbtzBjWwlCPsnCIx2Mur2XKjxk+zouGeuy69vDMw5w/35tEJhL87cz3zQ2+9LgwNrv0/IdTAGAux/WDEV67riWll/OiVkwj4NtOO9ZbaGSioR5F8z8Gtf3aNBGPn+Lt8GdijuYjhsH0A1EXH7V9o/TvlDwzAz1btkH3RtyDiETiqFGjej17AgCFQvH35wDA1WtXO1+qoKAwNzeXSCQOGzq020J7VX2lBgoAMdml8/xdzzzMNaBRyuqEMTmlo12sTRl6N7KKiXj8holDBn71e4NEdiYp98Kyqf+mF5AIhI2RCfcLKyd62htQyVErpu2LTTmfnGfB1J/DcfX6+rhSrU4pqV4T5v/ByRtmBvo+207WiqT75oUkPCnfHZ184l5mbz3bkAiEOnE7lbj5AW6Tf75QWivMq657N8jTwZgFAIdvP0otrakVSSN9whtliiqBqIQvrBPLAGBfbMqt3LLlowedT867lVsGAD/dTJvLcb2a2c7LJ3/93ySpQimWKzMq+AuPXm7ZfulxQUJ+uT2b6W5uRCLgDahkAIhMy0/I5wLAj3NGU0mERUPd7xVWeloZqzGMRaO4mRtlcPnd8910zRw/1yDHpr+CKaXVy/9op9OZSSNjAJr29A5gGNSKpGx9ajFfoPtA33iTJk26c+duVNS/waNHOzs7v/R4hUKx76efAGDE8OGaOZj7pj6UQBPyy7+bOTLE1VrTlXQ9q3iEk5U5U39fTIolS58nlGgW+M2rrrNk0TW1zrzmvpRxHraZFbUsGgUAHE1YbH1q/Kq5ml3ZlbUAwGsUa1YD3nb5/vZpwzP+tzitjLf6796Z+iSTy2+zlvf26cN/vJHMolEaxE3j+OolMs3tCKRyAJCr1PjnppvVrB7Moj1dll0gkbH0KO1edN6hi5pH+DZGuVjvmjnyRlbJ3QKuTKnSXEPQvL6xQqXG43BMGoVFo9gbMwHg2N2MRplCq/vWvd/vZrR5hH9evUSmUmOGepS65u/W3pipUqvb9NrhcGBlSC+r651WnddegL+/vz8nMTFp1eo1u3/8wc7OroODMQyLiNj0+PFjPRptyZIlPRakFvrQI7xYrqwSiGb5uVzNLAKAmzmlPjambuZGD0uqqoViEwaNRiICwABDRoNEpnkCbXkK/if1yfSDUesnBNgYMbj1jTVCSdDOv4Z9++eCI5f+eJDd+sgAO/NV5+McNh69klH0v8nDeuVOb+WVmdBpczlN3aOLh3pM8nLgNUqSiqvCBtoBgAVT3RwzbgAAIABJREFU39mElVtd93xZhUpNJDyTSZOKq8a62WjSa5iHXUppTZeCWTzUY9vl+5+dvfmwpJqtT2t3DtOHxVXchsZd15J+jk0NdLBofPHy8X2QSo1dfFSwuLlPEoeDffOCJwy0b3PYfH+3TC7/DZ96rlutX7fO09NTJBL98cefHR+ZlPTwYXKyHo22ZcvmPjuASaMP1UABICandNU4znvHrwGAQCrHMCyvqk6lxlRq1ZGEx6fenRCZlr80yPPbq4ltCqrUGLe+8ZvLD35dOHbCvr+TiquOLB4Xm1O6YvTgXdeTWh/pbm70bpDn6aSc4U6WmsfenidXqqYfjDq0aOymSUMxwGoaJTMORqkxbNX5uN+WjF8aONCCSf/4r1hhe3nqQVHlgflj6sVPXzi5llkc6mZzd81bcpUqv6b+aMLj4V1p2z2dlLN92vBZvi5iuSK1rNrasJ1Zb7ddun9y6YSx7rbGdNqpB1l9pxMpbKCdkf7Tt6S/u5ZY1N4D+LoLt6+unDHQgp1ZwR/rbgsAx+5msGgUBoX881tjAMDakD7Qkj39QFSPRf4GotPpH3+04oMPl927f1+tVuPxL6y93bl7BwAmTJjg7d2n1zQGAFwnRzlQVuzp+ICVIT42RoxXnA/UgqnvYcGOzi7RfBxsbSJVqDTP4AAw3MnKw8IoqbgquaQaACZ42t/IKlao1C3jQHE4mOrteCu3rEEqG+NmY8c2eFBYmV7OI+Bx4wfaa/oNcDgY5WLtbMJ6zOXdLWjnkbbz/nh34t8peS+aUPmH2aMKeA0dzwdKJRHwOFyb4Yd0CkksV75oXncAwONwz+8lEfBEPF6i0GYkIxGPJxFeXpZGIipU6g5mRE5YPe/TMzdfNCD3/AdTfrubocP5QJ8fB3ozp1ST3J1MWXQKKbVVZZxKIoR52Fkw9XOr62NzSjAMWsaBqtRYlUD0sKRaruvpwMt2/J/vtlPdWqs98/7kNs1BfRmGYdOmzxCLxb/+ctDevu1DQItly1c8efJkU0TEiBHDezI8LfStGmhFg6iiVWN/6rNPo7eflN9+8nRm/8uPm8blVjaINF0EGAaRafmajTeySlqO1DzEaX7GMLiZU6ppZu117Q6ef2kLY7u5VaFSaz37vVLdUVpsoV127j7ZlbUtf1zbeP5FA6lC1fLfRsuW8y/444d0ExwO5+LsnJqWlp2T86IEKpPJNOPn3dx6/xWAl+pDbaAIgrz2XN1cASAjI+NFB+Tm5iqVSiMjIxMTkx6MS0sogSII0nM0zZoPHya/6ICU1FQA8PHx6bmYXgFKoAiC9BwvT08ikcjj8UpKSto9IDU1DQB8fVECRRAEeRaNRnN3dweAhw8fPr+3trYuMzMTAHxRDRRBkI6FDbQ7sGBM6y3z/F23T3+m6/nDUYNWh/n3bFzdKyQkGABuRMc8vyv2ZqxKpXJycjI2Nu7xuLTRt3rhEeSNklRU2ebN0dic0qTiqtZb/ksv6DuTD+jEqJEj9+8/kJubm52T03q2PbVafenSZQAYN66zk5P1OlQDRZBewxdJ24zEqhKI24zBKqsTvmav5zMYjNGjRwHAkSNHW49Dv3zlSklJCZ1OHxsa2nvRdQ2qgSII0tMWLVwYFxefmpr65arVLBZLszExMREA5syZTafTezW6LtBlAp3s5eBg3HfnTdE5Xxuzv1M6Gom9NNAzxNW6x+LpdU6mrI4PWDs+4J3AgT0TTF9gQGt/YhfEwsLi888++3bnzvT09NbbAwIC5sye3VtRaUFnr3LaGzPbvFf3JnhYXFXxgnnSBlqy7d+kPycat/PKW6aGaoNja2bO1O/heHrd9cxima7fEG2tf73K2UZBQWF2djYGTSnIkGU4ZEgAgdDOdDZ9ls5qoIW8hkJeg67O9hrI4PL7yKSZfUSbvhEEcXCwd3B44Rvx/QLqREIQBNESSqAIgiBaQgkUQRBESyiBIgiCaAklUARBEC2hBIogSKfk5ObG3LqZmZWl+SiRSHJycztZtpPDJVtUVFbmF7S/eEHas0NHn1dQWCgQ9NC7WyiBIgjyEiKR6PM1q478/lt+QcHh34+tjdigUCi4FRX7fz3YmeK5eXmHjh3t0hV/2Ls7YvPXCkU7qzNs/Pp/HZeNvhlbWt5Dy52hBIogyEscOnbUydFp57Zv/u+dpd9v/xYAYuNutezl8XhKpRIAZDJZXV0dAKgxLPdJXn5hgVqtxjAsIyursqpKIBRqjsnKya7hNa3WU9/QIJaIn+Tnq1stKlNVXdXQIPDz8bkZ93SNNYFQmJmVJZM1vabR0NAgk8lKSkuLS0oAoK6uLis7W7PazazpMxwdHKUymUAgqG9oyM7Nkcu7ax1Z9C48giAvEXPr5r7vf9T8jMPhtn21mUAgtDxir//fpq82RlhaWGRmZ/0deWHLpq/WbtzANDAAgIrKyj27vr99J4HH56Wmpdrb2X+1dYvP4EF5+fnDAobMmz3n0NEjBYWFgIOVy1a4u7lpTnj56tURQUHeXt6Hjh0ZO2YMAGTn5mzdsX1oQMCxk8c1xxw7cbygsNDSwiIjK8vb01MsFtfV11uYm6/54st9B/aPHzsWw7Ajv/1mYmJMJJKKS0oO7z9AJOo+3aEEiiBIRxRKpUAgsLR4uj57x29bqlSqnLzc3Tt32dvZ3b6ToFQqp0yc9DAleeTwEVt2fLNw/vzgkaNUKtWid5dO/P/27ju+qap9APhzM5rZlXSne1MKLd2Dlj1FkOmLiojIUBT5vYoyZKkI4gCFF3hVUF8VZQmClF1KS0tpaUv3oKVt2qYzSTObfX9/XIwVCrSxbQKe74c/knPPufdJrE/OXc+dNBkAoiIjFy98yTjcgOPnL13c9clnTo6OIpG4pvaOn4/vD4d+em3p8oS4uIbGhtfeXEn0DB06dOnLi1Ovpv168uSenbukMtni5cu6R4IDvnXz+wCw9PXX6vl8P1/ffvxaCCiBIgjyMFQKhc1mSyQSY5FjYj/9Qchk8oply7d8tFWn004aPyE+Ns64qK6+/k5t7c9HDgMAmUxq7+gAAB8vr+7D8wvyRWLxjs8/AwC1WnXq99//742VDY2Nvj4+AODh7kGnM4ieXp6eAMCg011dXACAyWDodH85ZurBcyde2NraDtBePEqgCII8QkJs3OW0K8/OuVsnad/XX7nzeInxCcRbMpms0agBoEMoBICuri57W7vvvvq6obFx26c7AvwDMOzuWXh7O/vnnv1XRHg4AGRev85zc4P75rMp58+/tnTZ2NFjAEAoEq5Y9eayV17h2HPa2ttcnJ0VCoVaozZu9+6YB9Sbxga+EDVKoAiCPMLilxb93ztvt7a1+fv5FRYV3amrffP1N1paWoilAf7+B7//Pj4uLuX8OTtbWwqF8uW+/8yaMZPL5ahVak8P97b29tLysoLCW3Nmztyzf+/C51+o4/Mzr2fFx8besyGpTJZ7M/etN1exmEwAsGazQ4YMuXj58pyZM/fs3/fC/OcyMq+RMAuqz9/bcnbbz+X07TouBEEG3uwRAYHO9oOwIYVSeS0rs6293c3FNTkpiUqhSKXSkrKyhLg4rVZ7MfWyRqOJi4ltaGyMjowUi8VpGel6vT42OsbD3R3H8dS0NFtbm6iIyOqamryCfDaLPWb0KCaDWVhU5OTkROyDA0BrW2t1zZ3E+Hjjdmtq74iEouioqNLyssLi4uiISH5Dw7gxY4pLSjgcDs/NrbWtTdAsGBEWbsDxS6mXJ44bn19Q4O7uDgCNjY3Ew+myc3KCAgPt7R5Rr9YEvU2gCIIgyD3QdaAIgiAmQgkUQRDERCiBIgiCmAglUARBEBOhBIogCGIilEARBEFMhBIogiCIiVACRRAEMRFKoAiCICZCCRRBEMREKIEiCIKYCCVQBEEQE6EEiiAIYiKUQBEEQUyEEiiCIIiJUEV6BEHMpr29va29vbOzk0qlOjo4OLu4MBkMcwfVByiBIggy2FpaWk6f/j3r+vXGxsbu7VQqNSwsbNSo5PHjxg3EU4j7XW8r0m9KWwKodj2CWJj5w1YEO4wwdxR9oFQqv/v+f6dPn9bpdABAoVBcXFzs7ezUGk1HR4dIJCK68Xi8JUteSUxIMGuwj9bbHN8sqx/QOBAEMUGXTmnuEPpAIGjeuGljfT0fAKKjo6ZOmRoVFUmn07t3yLiW8euvJ5qamjZv3jJv7tzFi18mkSz3VM1jMElGEOQJIBAIVr65SiKRODo4rF799ogRPUyc3dxcn503b8b06T/+9NORI0ePHD0qEoveWb0as6QncXZnuakdQZAnhkKh2LBxk0QiCfD337Nnd4/Z04hOp7+yePF769dRKJRLly7/cvjwoMXZVyiBIggy4A4e/JbP53O53Pff38LhcHozJDk5edWbbwLAd999X1dXN8ABmgglUARBBpZAIEg5exYA1q5Z4+Dg0PuBkyZNTE5ONhgM3xw4MGDR/S0ogSIIMrB+O3VKp9PFxcaGhQ3v69jFLy+iUCg3buTcc8GThUAJFEGQgZWVdR0Anpr2lAlj3dzcwsPDASAzK6ufw+oPKIEiCDKABAJBS0sLjUYbER5u2hri4+MAoKDgVr/G1T/QZUyDJMlzapuyqbKj0Ngyd+iya/Vnh7vEna8+0r2nM8u9VdGrvZUA7jA21aagJdPYMidkCZ3CMr6tEZVeb7z4yPXEuY8XyOr4kurebLS/2NI5Kl2XWtc1mBtFBl9bezsAuLq60mg009bg6ekJAO3t7f0ZVj9BM9BBotZ3TfKbZ3zrax/ibz9UppFIVMLu3egUxsq4rb1cpxvby8c+qHtLnPs4vuR2eUc+8U8g79XtD3KNRKNX9XKj/WVF9Ba2lc0gbxQZfGKxGADs7e1NXgOXwwEA401KFgXNQAdJQXPms0NftabZydSdAJDgMSGDf9a4NMFjYqeqI5A7XKruZFGtEz0mVYmKXdmeRa3ZABDNG13ZUShVi/05oWHOcRiG3WrJqhaV9rihotYbnaqO7i0jPacIZPWRbkltCkFG/RlP2wAahU7MhQO4wzR6NdGNw3DiWXt72wU1SGsKW6/H8sZ52wU2yxuu8c/qDbpot1GtiqYot2SVTpVae0Kl64p3nyCQ1UXzRotVHdcbLo7xmWFFol24c0yhkZJJlGTPqc5s9yphcX5zBhFDs7w+0jW5VdGUUX/G136IHd1hlNe005U/aA2agfnKEYvAoNMBQKNWm7wGlVoNAJZ5P5IlxvRE0ho0uYK0aLfRAEAlWQ1zjr0pSLOh2SV7TQOAsT7PjPaeLlV3NklrdQZts5zvwvaI4Y0mxiZ5TrWjc/04IXOHLstvzqjsKHwtejODyupxQ8OdYyPdkol/9nQHAJge9GKCx4Siluwo1+RRXtPUetXckGVE57khSzU6VYTrSJ61jyPTdUnkOj2u0+hV04MWhjpFZzdedmK5vRz+DgAkek6ZEbSwpO2mI9OVGD7aZ/rUwOeKW3Pi3Se8HvNBrbicZWX9dOALALAofLUtnXu98VKUW/JYn2cAYEbQwjj38YUt16PckpO8npKoRBq9uklaawDDQH/ziHlxHRwAoEPY8cieDyIUCgGA8zfmsAMHJdDBc41/LtZ9HACEu8SXtuWq/nr471z1kdTak3xptVavuSMuv394k7Rub+4mpVZBozB0Bq2NVc9/T+42vl62AcQ/ppU1AJBJlN8qv68UFmY3XXJmuzfL6vUGnau1lwvbw4Drm+V841iBrD7l9s9l7fmJHpMOFe+u66w8VvZVkEMYkawv156oEhal1Z1yZrsT/S/WHK8UFpa23Sxpyy1rz7/ReNmR6cqksoc5xVQKC5lUdnFbzkjPyQBAJpFPVXxfKSy80ZjqzOK1K5tVOmW1uFRv0PXPl4tYKlcXFzKZ3NbW3tbWZtoaSopLAMDXz7df4+ofaBd+8DRK75AAc2a5x3tMPF31wz1LZWrxPS3YHz9vZBIFAJxZvMURa/iS6hpxmVavedDdwSm3f75nFx4AlFo5AOj0WgwjAUBmw/lY3lgAyGq40L2bVC0GAAwwOoXZpVUAAI7jCq2MTbUBAKVWAQA6g5aEkf6IuRMAdLiWOISqxw2AYSwrGwOuH/JHiaA8QTrxQkHE0G048k/AZrOHDx9eUFCQmZk5c+bMvg7HcZy4gCkqMmoAovu70J/yoLrGPzfa+2kbmn2tuKLHDnqDjshxal2XHZ0LAHQKw4XtAQAjPSen1Z3+Jn9bblOaNc2OQqKaHEauIG24c2yYS3yu4Or9S3HAW+R8P04IAHAYTiyqtVjVhxOgoq42nUGXVnfq1/ID+c3XrMj0HrsZcD0JI5sWP/J4GT1qFAAcPXZc3fcjoenpGY2NjUwmM3Fk4gCE9nehGeigyhFc+Xj8oZMV3z6og0av1uhVK2O37s3dTKMw3kr4BADaFQIAKGrLeXbock9bf5aVTbOMb0vn9riGNSN36XE98bpJWrs3d/P9fbq0iiZZHY7jxDTzfoeK97wU/nazrJ5n43OoeLeuLzvaeoPuUPHuVXEfN0iqPWz9fiz6osdufEn1m7FbP81aff98GXnCjB8/7vCRwwJB8y+/HF648MXeD1QoFAcOHgSAObNnW2al+t4WVF56euJAh/IPQacwNXq1AdcDAAkjWZFpKl0XncJU67uI/xYYhjEoLGKn247OlahFViSa1qAx4AY6hUGnMDtVQiqZBjiOA45hJK3+z191BpWFwZ+79gbcoNIpmVQ2sTYKiULCyMRpd2ICqzNoAcCKTDPgegOOU8lWxgszMQyzpztK1WKiD43C0Oo1BlzfLWaGRq824AYqmYbjBp1BS8LIxjWQSRQ7GleiFhLJt8cYmFR2l07Ry79ApEevRm8a4WKJU7N7ZGdnb9i4CcOwTRs3JCb2KmCDwbBhw8ac3FxPT8/9+/ZSqabvcg0clEAR5DH2uCRQAPjvV18dO3acQqGsXPnGlMmTH95ZLpdv27Y9JzeXwWB8smNHUFDg4ATZV+gYKIIgg2HpkiVjxozR6XSff77zgw+3CgSCHrvhOH4lLW35q6/l5ObS6fStWz+02OwJ6BgogiCDo66urqSkhHidnp6elZUVFhYWHxfn6enB4XBVKpVQKCwpLcnMzDLm1qCgwCHBweYL+dFQAkUQZMC1tLS8u2atWCz28PBY/PKis+fO5eTk5uXl5eXl3d+ZzWYnJSVdvHixsLBo27bt69evs8zbkAAlUARBBhqO4zt37RKLxQH+/jt2fMxmsxMTEwWC5qtX00rLyhoaGqVSKZVKtbe38/X1jYmOjouLYzAYyUkjN295Pz0jI/S330y4gHRwoASKIMjAyrh2LT+/gEajvffeejabTTS6ubnOnz//IaOioqKWL1v2xZdffvfd9+PGjbOxscTSMxY6MUYQ5Ilx4cIFAJg3b66bm1ufBj711FRfX19lV5dlVlMGlEARBBlQWq02Ly8fAMaNHdvXsRiGjR0zBgBycnL6P7L+0A+78BhgFvvU5oFjwB9YRgjDsO5Xs/9DoC+kOxxwdIMAQSQS6XQ6Go3G4/FMGO7r6wsArS2t/R1X/+iHBPps6KtjfGbAP+mvBcOwbRlv1HZW9rj0tajNw53jBjkk88Iw7K0L84jaIvfbkLyPZ+0zyCGZlw7XrjgzzdxRWBCTf04sfG7WPyeRDpfsS6092S+reiysS9r98A77bm651WKhR20GwmeTjj68wwfprzZK7wxOMGZHJdN2TT5u7igsBZ0oqKzR6PV6MrnP5WOUSiUAMJjM/o+sP6BjoAjyJDP7kQQigQKACaWYAKCrSwUADEbPNb3MDiVQBHkylZSUfPTRRw0NDeYNw8rKirgMXqUy5blbXV1dAMCgW2IpJkDXgSLIE0Yul19NTz954kRdff306dOJR1qaEYZhLBZLJpNJZTIOh9PX4XK5HABYrJ4fYGN2KIEiyBPi9u3bZ86cuXT5MrGzzGazX1ywwNxBAQBwOPYymUwkFHl7efV1rFAkBAAOt8+Zd3CgBIogjzdlV9eVK1dOnz5dU1PTvT0yMjItLc1cUXVHJlMAQCw25bnEYpEYADj2KIEiCNLfcBxPSUn59fjx9o57C/vn5effunXLLFHdg85gAEBzc4sJY5tbmgHAycmxn2PqJyiBIshjDMOwObNnz541q6Cg4ExKyrVr1wyGu3c0BAUEbN++3bzhEQ4fOfLNNwf4fT+dheN4U5MAAMx+JPdBLPosPJPK9rUP6d5iR3dws/biMByHOEZQyTRjuxOL588ZOugB9jMmlR3ACTW+pVEY3nZBD+ps8t1fXKYzl+Fs2ljz4jKdo9xGRbols6jWxsZ/4F1w98MwLCIiYsN77/34448LFiyws7MDgLz8/OwbN8wdGgCAt5c3ANxzhKE3Ghoa1Go1nU53drbQv1iLTqAGXL8y9kNrK1tjy6whL/vYBYe7JK6K2zbCJcHY/lL4W4vCV5sjxv7kZu29OvHzCNeRxFtHpuv80BU99ozljU3ynGLaVmJ5Y6N4o0wM0XwSPSa9GbvNw8YviBu2cfR/PW39AWCC7+ww53hzh2ZBHB0cXlyw4OdDhza8915ERMS+ffu0Wq25g4IhQ4IxDGtoaJBIJH0aWFxSAgDBwcEW+zNp0QlUpesqaMmM4o0m3tIpjCEOETcFVwGgTlwZ6ZZMtHMYTjTKn5eJ8ay9AzihdIqF3rrwcKKutn+Fvsbu9ptBYFLZAdxhHIYjAFiRaUEO4Q5MV2eWO4fhBAAkjOxh40f0dGa5E3NzF7Z7ACeU+GZIGMmF7eHAdHFkuhrXybaydbX2IlYexA1zZrkPykc00Wif6d/kf3Si4uCh4t2nK/+X4DGRSWUHcoc7sXh0CgMAOAzHQO5w41fnZu1lTbPj2fgAAJVM87EL8rUPMe610CmMIG6YLZ3jxOIRz9ejkmm+9iHEF/K4o1AoycnJH2/fvmXLlra2NnOHAzY2Nr6+vjiO3+jjjDj7ejYAhIUNH5i4+oFFJ1AAyOSfi+XdLeIS6Zpc2HpdrVcBQLWohGftQ/yfE+U2Krfp7vPNZwS/NCdkyTDnmHVJu4l083hplTdm8M8+N+z17o0+9sGrEz4LdYx+JWJtstdTLKq1K9vT0zbAnzt08Yh3AcDXfsh7o/ba0OwxDHsj9kPA8XlDl88PfT3MJX5d0m5XtieNwlgVt31J5Pqng+5e18JhOP47/mMbKzsOw/HdkbtCnWPmD1vxdKBFXPXSozuisulBC0McIygk6jX+uV9K9trSOFymsx8nxIZmP8pr2vKojaFOUW8lfBLiGAkAK6K3LI/cMDdkKYfh9G7izgjXpJGekzYk76WQKFym83vJe4e7xC0KX/12wicchpMNjfNu4s4ot+SZwYueG/aGuT9rv/H28jKthEe/G5WcBABnUlJ6P6S1tfVmXh4AjBpluTtMlp5Aq0WlDCrLieUGAPEeEzL4Z4l2A+BFrdnDneMBIMwlvvCPG88DOcNuNKWerPj+QMHHxsejP15Sbv/szHaPdE0ytswKXnyoZM+JioM7s9dOC3xequmsEN4qbMnK4l+wo3PpFEaIY0SDpCbIIczbNrBBWsNlOg11itp1Y+2xsq9/r/qRSJp2dO4X2WsPFuwAAHu6w+sxH/xU/GWlsNDN2lum7rx05/i+3C23RcVm+9iPcrh0f1l73rTABZ9POro8aqMD06VZzq/vvJ3dcEnY1TY9eOGu7LW/lh88kL997tBlAEAlWx0v/2ZX9loGhflr+YHj5d/8XPwfHHAOw3m8z6zU2t+Olv73PzmbyBgFACb5zbneePFI6f69uZs9bf141t7m/rhPmsmTJ9NotLKy8l9+Odyb/mq1escnn+p0uqioKA93y903egzOwmfyz8fyxmU3XqJTmPWdVcb2m4Krk/2freus7FQJ1fq7TzM/Urp/1pDFc4cuL2nNOVb+tZlC/lv0Bt23BZ+sjP3w21ufEi0ubI/pQS8aDHoAEKuExoPCOOAl7TeDHUYEOYSfqfop1ClayvYqbMlyYrk3Su4QN0HzO6un+P8LAKRqEfFkdgCIcx+v0EiJFZZ3FARyh61L2iNRCc/XPKImiLmQMJI93SG19mRq7UkmlT3Z/9nFI9Z8nLmKWMphOElUQuLTNUlrjYcpmuV8ABB2tSZ7T5sRtFClU7KpNmQSxYnldqs1CwC0Bk2rohEAXNgegQ5hw51iiYHWNDuQDf6nfJLZ29svWvTS/v3/PXDwoLWN9VNTpz68/5b33y8qKqLT6cuXLRucCE1j6TNQAMhuvBThOjLGfWwm/1z39lpxhQvbY6Tn5NymK8ZGJzZv1421G1IXaQ3acT4W+hyVR2qU3kmvT5k3dDnxVqIWHS7ZtzN7za7stZfvnJBr/jwSX9iSFemWjOOGkvabfpyhIY6RRa03JGqRA9OF6ODAcpWqOwGg+3z8fM2R/xXuXBj+NpVk5cR0uylIX3Px+SOl+xcMX0UmWeJvqhWZtnn0VzY0ewBQauUZ9Sn2DAcAwAEHAKlabEvjUEgUALBnOCq0d5Mf8QsxNWA+jht2ZP17V/ZarUFDxsgdyhbigC8JIzswXQFAqu68Uvvbzuw1O7PXnKk61CSrM9MHfZLNnjXrhReeB4Bffjn88BInt6urc3Nv0mi0j7dv9/Ky0AuYCJb4f8s9pGpxq6JppMfkD9Jf7d6OA17Ycj3RY9Kpyv/Z0OyIxnCXRD/7kCphsTOLV9xmEddwmOZs9S/hf1xmcKHm2MLwty7WHPOzD+EyXXKaUmXqzhGuidWi0iph0ZLI9am1J7V6tVQtMuC4Uivnd95W6ZRzhy5rkFRP8f/XsbJ7Z+IG3FApLKwWlU4PevFmc/riEe/+XvWjLZ3bJKvTG3SD/lkfTaXrOl9zdG3Sl7lNV9R6dSxvLDFZlqk74zzGN8lqcwVpi0a8e6slc7T39At/nUcrtHKeje9Qx6hwl3gqmUanMC7Vnng95n1rmp0GQaz5AAAKtElEQVS7tQ+dwgTAU2tPLovagGEY28o2wWPiR+mvPyAQ5G95/rnnjh491tLS0tjU9JAd85u5uQAQHxcXEjJkEKMzBXnz5s296Xe66ocHLQp1ilZoZbWdFf0X1b34ktuVwsIW+d0LcRVaWYucL1WLm+X15R0FHcpmPa5vlvPbFIKi1mwahWFPd8hsOF/ZMVC3YSR5TS1py+lUCXtcGsMb0yCtMUbbexq9ulnOF3W1AQCOG0rbb/IlNR3KliZZbX1nlau1V7Os/veqHwy4oVFWq9NrJBqxRCWq66wsb89X6ZQN0julbbkyTScA5ArSaBSGLY1ztvpwjbgMB7xF3timaAIAuUbaIufLNdIqYRGVTK0U3rotLHaz8ZapO3+r+E6Pm5JAJ/nPS6s7rdH3XG5nlPe0gpZMqVpswpqNqoRFt4XFLCsbvUF38c7xwpbrAMCX3AYAUVd7TlOqRq9yYLpkN17ME6QDQKuisUXeiANeKy7XGbQchmNO05XcpisyjUSlU+Y0XcEAcpvSItxGXqk91aFsLmrNdmF7qnWqY2VfqXTKvxMqmUSZ7P9syu1Df2clvRTNG+3Ktug5WnckEiknN7e9vT04KJgoNd+jY8ePNzQ0TpkyZcgQS0+gj8EMFADaFII2haDb2ybiRadKSGQxjV5d0pYLADqDNrfJIu7/NYFcI7kt/PM0jlDZKlTefZIBX1LNl1QbF2n16htNqcTryo5C4kX3isV6g47II8a3xa135+PEkUEAUOmU+c3XiIGPRbXje74EAFBq5dcbLhKvS9pyib8BQtEfn9eAG7p/FQCQ4DExym3U6cr/hTrHyNUS4pBIh7Llat3pgf0ACEBwUFBpaWlFZcX48eMe1KeysgoAAgMDBjEuEz0eCRRB+tH1hot6gy7WfZxY1fHFjXXmDuefJXhIMAAUFz/weo/m5mahUEihUAICUAJFEMuDA36jKdU4hUcGU3hYGIZhtbV1IpGox/KgRAGUoUNDaDTa/UstzWNwFh5BkCeGnZ2dl6cnjuMFBQU9dii4VQgAkRERgxuXiVACRRAzGOIYEeX2lxtswl0ShjnFdG+J4Y0N5FruXYwmi4qOAoDc3Jv3L1Kr1TeyswEgIiJysMMyCUqgCGIGWr1Go1ff06I1aP/aotYZzF8KpN+NHzcOADKzsognbnaXmZml7OpydHB4LM4gAToGiiBmUS0quaeltP3eGVlBS+ZghTOo/Pz8vL296+rqUs6enTN7trEdx/ETJ08CwISJEyy2/NI90AwUQZDBNvOZZwDgl18OC4V/Xkx95UpaRUUFjUabMX26+ULrGzQDRRBksE2cOOHU6dM1NTVLli5js9lEI5FMZ82aZcLDO82lfxJogsfEJ6AgfO85stwe3mGi35wY3pjBCcYSMB5VfXV2yCtdWsXgBGN2JAzt2D0ChULZuOG9d95d09raKpP9WbglMSHhxQUvmDGwvsIefle/0dLTEx+0yNPW35llETUHB1NZe76xaMU9/Dmh9nTuIMdjdgUtWQ864zHUMYpJtdDneg8QPW7Ib84YhA29Gr1phEviIGxoIGg0mqqqKo1Gy2azMAwjkym+vj7mDqpv+mEGev8Ndv9w958f+Ie7//QIggCAlZVVaGjoo/tZMLSvgSAIYiKUQBEEQUyEEiiCIIiJUAJFEAQxEUqgCIIgJkIJFEEQxEQogSII0gfKLmV1TY1MLn9QB51Op1L1/HAXE+h0OsV9NUcICqXS8NDL2DUajUaj6a9IeoQSKIIgvfXZF7uWv/H6ge+/W7ri1a+/Pdhjn8Liom2fftJfW/zh0E/znp8vkUjuX7TizZVi8cMetHXoyOGTp0/1VyQ9QvfCIwjSK7erq8vKy7/7+gAJw1Rq9cJXFk8YO9bbyxsAcBxXKpUs1l/uN+vq6mIwGMa3arWaRCZTKZTuLcay8wqlksW894ZgA45fTrsyfdrTKefPzZ/3rLFdLpcb76C/29NgUKlVTAaz+6peemFB9z7KLiXRoR+hBIogSA+EItGKVSsPff8DCcOuZqRnZWcveXmxuLMzLy9vRHg4nUb7757/sFmsiqrKz7/8gsVkkUgkOp2+5b0NAMBv4L/+71VarZbNYu/Y+hGGYTs+/6ypWaDVaGOjoxe9uPDM2bNpGVerqqsXzH8+ODBw554vHR0cJBLp2tXveHp4GGPIy89357k/NXnKO+vXPTt3HgnDFArFuk0byGQyhpGkMhkAnDj12838PKlM1t7ePnnCxIqqyta2Nh8v743r1n/34w9MBmNUUtL6zZs49hy5Qq7Vanft+PSeRP93oASKIEgPuByOj7fPrcLCiPDwC5cvzZ0124HLXfP229//9OOWbVsjwsKnTp4SFxMDAB0dwl3ffspkMLd+vD39Woatra1S2bXvi910On3piteaBIKyinKDwbD7s50GHP/3O6vLKyoAQC5XnDh8FAAWvPzS9g+2eri7FxYV7d6/95Ot24wxnD1/bsrEie48HpfLuZl3MyYq+tdTv4UMCVm2+JUOofD5RQuJbnK5/MtPPy8qKVm3acORHw/RabSZ/5rX/ThsY1PTZ9s+trW1Xb950838vFFJyf31LaEEiiBIz6ZOmnwp9bKfj09DY2PYsOEAEBMVHRMVLRaLs3Nzdnz+2fp332WxWKEhIcSucdjw4VXV1dGRkf5+vnQ6HQAcHR3EnZ0VlZUVVZVvrXkXAJpbWiqqKq2oVsFBQSQMk0gkrW1tu/bsBgCDwVBzp8a4dalUmpGVaWVldTM/X61W//b77zFR0bdv3546eTIAOHC5Xh6eRM/goGAMwxwdHFxdXIiddxtra7X6z4L/Ls4utra2AODq4tzVfye4ACVQBEEeJC42dv83X124fGn8mLEYhh0+dlQkFr+6ZKm9vf2UiZP4DQ1lFRXRkZHGs+RSqZROowEAhULtvh4GgzFj2tOzn5kJAK1trWwWOy093crKCgDodDqLxfpk23YShul0OkFzs3HUxdTLCXHxE8aNA4DkxJGbP/qwvaOdxWJJ/yh/16XqIl4Qq4IHFxIkk43tGPSq/Fxv9TaBTg2Yj/fvlhEE+dtcWO4Dt3IqhZIQF//DoZ++3rsfAJJHJr268nUrKnVYaGhLa+vlK6nbP9iq0WpuFRVezUh3cHA4e+H81s3vt3e037OecaPHbPzg/UD/AIyEbf14+/YPthoX0Wi0EWFhXx345qnJU35POSPqFK9/Zw2xKOX8uVUr3hj2R7mm5MSRv6ekTBw/fs/+fT5e3qXlZU0CwcB99l7qbT1QBEH+gZoEgus3sufMnEW8FTQ3p5w/K2hu4djbTZk02c/Ht6Kqct/XX8VERgmam6dNmTokOJg46Dlh7DgAOHfxQtiw4a4uLuUVFecvXdTr9VMmTgoZMqSiqrKzU0IcQtVoNCdOn7pz546Xl9esGc8Qc1iFQnHk+LGXFrxofDhSbV1dXkH+nJmzbuTmXEm/GhwYBAATx4+vratTKruiIyOlMtml1MuzZjwDAIePHZ0x7emy8nIKleLr7XPu4sU5M2cCQFZ2tgOXGxjQb0+sQwkUQRDTVVRVfvPtt59u227uQMwDXUiPIIjpbKytw4YNM3cUZoNmoAiCICZCM1AEQRAToQSKIAhiIpRAEQRBTIQSKIIgiIlQAkUQBDHR/wNQTdz5kPRDiAAAAABJRU5ErkJggg==;" vertex="1" parent="1">
          <mxGeometry x="1410" y="880" width="480" height="317.15" as="geometry" />
        </mxCell>
        <mxCell id="XkCLo2xvKGE-usK3MF6P-93" value="" style="rounded=1;whiteSpace=wrap;html=1;fillColor=#e1d5e7;strokeColor=#9673a6;" vertex="1" parent="1">
          <mxGeometry x="60" y="310" width="570" height="260" as="geometry" />
        </mxCell>
        <mxCell id="XkCLo2xvKGE-usK3MF6P-96" value="Namespace" style="text;html=1;strokeColor=none;fillColor=none;align=center;verticalAlign=middle;whiteSpace=wrap;rounded=0;" vertex="1" parent="1">
          <mxGeometry x="60" y="310" width="140" height="30" as="geometry" />
        </mxCell>
        <mxCell id="XkCLo2xvKGE-usK3MF6P-98" value="" style="rounded=1;whiteSpace=wrap;html=1;fillColor=#1ba1e2;fontColor=#ffffff;strokeColor=#006EAF;" vertex="1" parent="1">
          <mxGeometry x="70" y="370" width="120" height="190" as="geometry" />
        </mxCell>
        <mxCell id="XkCLo2xvKGE-usK3MF6P-99" value="" style="rounded=1;whiteSpace=wrap;html=1;fillColor=#d5e8d4;strokeColor=#82b366;" vertex="1" parent="1">
          <mxGeometry x="300" y="330" width="320" height="230" as="geometry" />
        </mxCell>
        <mxCell id="XkCLo2xvKGE-usK3MF6P-100" value="VM" style="rounded=1;whiteSpace=wrap;html=1;" vertex="1" parent="1">
          <mxGeometry x="210" y="500" width="80" height="60" as="geometry" />
        </mxCell>
        <mxCell id="XkCLo2xvKGE-usK3MF6P-102" value="Tanzu K8 Cluster&lt;br&gt;(Grid Service)" style="text;html=1;strokeColor=none;fillColor=none;align=center;verticalAlign=middle;whiteSpace=wrap;rounded=0;" vertex="1" parent="1">
          <mxGeometry x="480" y="330" width="140" height="30" as="geometry" />
        </mxCell>
        <mxCell id="XkCLo2xvKGE-usK3MF6P-103" value="Control Plane Node" style="rounded=1;whiteSpace=wrap;html=1;" vertex="1" parent="1">
          <mxGeometry x="370" y="490" width="80" height="60" as="geometry" />
        </mxCell>
        <mxCell id="XkCLo2xvKGE-usK3MF6P-104" value="" style="rounded=1;whiteSpace=wrap;html=1;fillColor=#ffe6cc;strokeColor=#d79b00;" vertex="1" parent="1">
          <mxGeometry x="310" y="340" width="190" height="140" as="geometry" />
        </mxCell>
        <mxCell id="XkCLo2xvKGE-usK3MF6P-106" value="Supervisor Cluster" style="text;html=1;strokeColor=none;fillColor=none;align=center;verticalAlign=middle;whiteSpace=wrap;rounded=0;" vertex="1" parent="1">
          <mxGeometry x="500" y="280" width="140" height="30" as="geometry" />
        </mxCell>
        <mxCell id="XkCLo2xvKGE-usK3MF6P-108" value="Control Plane Node" style="rounded=1;whiteSpace=wrap;html=1;" vertex="1" parent="1">
          <mxGeometry x="510" y="490" width="80" height="60" as="geometry" />
        </mxCell>
        <mxCell id="XkCLo2xvKGE-usK3MF6P-109" value="Control Plane Worker Node" style="rounded=1;whiteSpace=wrap;html=1;" vertex="1" parent="1">
          <mxGeometry x="510" y="420" width="80" height="60" as="geometry" />
        </mxCell>
        <mxCell id="XkCLo2xvKGE-usK3MF6P-111" value="&lt;font style=&quot;font-size: 10px;&quot;&gt;Control Plane Worker Node&lt;/font&gt;" style="text;html=1;strokeColor=none;fillColor=none;align=center;verticalAlign=middle;whiteSpace=wrap;rounded=0;" vertex="1" parent="1">
          <mxGeometry x="330" y="340" width="140" height="30" as="geometry" />
        </mxCell>
        <mxCell id="XkCLo2xvKGE-usK3MF6P-112" style="edgeStyle=orthogonalEdgeStyle;rounded=0;orthogonalLoop=1;jettySize=auto;html=1;exitX=1;exitY=0.25;exitDx=0;exitDy=0;" edge="1" parent="1" source="XkCLo2xvKGE-usK3MF6P-99" target="XkCLo2xvKGE-usK3MF6P-99">
          <mxGeometry relative="1" as="geometry" />
        </mxCell>
        <mxCell id="XkCLo2xvKGE-usK3MF6P-113" value="" style="rounded=1;whiteSpace=wrap;html=1;" vertex="1" parent="1">
          <mxGeometry x="320" y="390" width="110" height="80" as="geometry" />
        </mxCell>
        <mxCell id="XkCLo2xvKGE-usK3MF6P-114" value="" style="rounded=1;whiteSpace=wrap;html=1;" vertex="1" parent="1">
          <mxGeometry x="434" y="390" width="60" height="80" as="geometry" />
        </mxCell>
        <mxCell id="XkCLo2xvKGE-usK3MF6P-115" value="Pod" style="text;html=1;strokeColor=none;fillColor=none;align=center;verticalAlign=middle;whiteSpace=wrap;rounded=0;" vertex="1" parent="1">
          <mxGeometry x="370" y="390" width="60" height="20" as="geometry" />
        </mxCell>
        <mxCell id="XkCLo2xvKGE-usK3MF6P-116" value="Pod" style="text;html=1;strokeColor=none;fillColor=none;align=center;verticalAlign=middle;whiteSpace=wrap;rounded=0;" vertex="1" parent="1">
          <mxGeometry x="434" y="390" width="60" height="20" as="geometry" />
        </mxCell>
        <mxCell id="XkCLo2xvKGE-usK3MF6P-117" value="Container" style="shape=process;whiteSpace=wrap;html=1;backgroundOutline=1;" vertex="1" parent="1">
          <mxGeometry x="330" y="410" width="90" height="25" as="geometry" />
        </mxCell>
        <mxCell id="XkCLo2xvKGE-usK3MF6P-120" value="Container" style="shape=process;whiteSpace=wrap;html=1;backgroundOutline=1;" vertex="1" parent="1">
          <mxGeometry x="330" y="437.5" width="90" height="25" as="geometry" />
        </mxCell>
        <mxCell id="XkCLo2xvKGE-usK3MF6P-121" value="vSphere Pod" style="text;html=1;strokeColor=none;fillColor=none;align=center;verticalAlign=middle;whiteSpace=wrap;rounded=0;" vertex="1" parent="1">
          <mxGeometry x="60" y="370" width="140" height="30" as="geometry" />
        </mxCell>
        <mxCell id="XkCLo2xvKGE-usK3MF6P-122" value="Container" style="shape=process;whiteSpace=wrap;html=1;backgroundOutline=1;" vertex="1" parent="1">
          <mxGeometry x="85" y="427.5" width="90" height="25" as="geometry" />
        </mxCell>
        <mxCell id="XkCLo2xvKGE-usK3MF6P-123" value="Container" style="shape=process;whiteSpace=wrap;html=1;backgroundOutline=1;" vertex="1" parent="1">
          <mxGeometry x="85" y="462.5" width="90" height="25" as="geometry" />
        </mxCell>
        <mxCell id="XkCLo2xvKGE-usK3MF6P-124" value="Container" style="shape=process;whiteSpace=wrap;html=1;backgroundOutline=1;" vertex="1" parent="1">
          <mxGeometry x="85" y="500" width="90" height="25" as="geometry" />
        </mxCell>
      </root>
    </mxGraphModel>
  </diagram>
</mxfile>
